<mxfile host="app.diagrams.net" modified="2020-10-22T01:24:21.662Z" agent="5.0 (Macintosh; Intel Mac OS X 10_15_7) AppleWebKit/537.36 (KHTML, like Gecko) Chrome/86.0.4240.80 Safari/537.36" etag="Mhs1_12NflU4_xtMV7VV" version="13.8.1" type="github">
  <diagram id="fZNxtknCqyulpOdQsxTu" name="Page-1">
    <mxGraphModel dx="1426" dy="746" grid="1" gridSize="10" guides="1" tooltips="1" connect="1" arrows="1" fold="1" page="1" pageScale="1" pageWidth="827" pageHeight="1169" math="0" shadow="0">
      <root>
        <mxCell id="0" />
        <mxCell id="1" parent="0" />
        <mxCell id="kQczTYPBpwKkl19j958R-11" style="edgeStyle=orthogonalEdgeStyle;rounded=0;orthogonalLoop=1;jettySize=auto;html=1;exitX=0.5;exitY=0;exitDx=0;exitDy=0;endArrow=block;endFill=0;entryX=0.481;entryY=1;entryDx=0;entryDy=0;entryPerimeter=0;" parent="1" source="kQczTYPBpwKkl19j958R-6" target="kQczTYPBpwKkl19j958R-14" edge="1">
          <mxGeometry relative="1" as="geometry">
            <mxPoint x="186" y="301" as="targetPoint" />
          </mxGeometry>
        </mxCell>
        <mxCell id="kQczTYPBpwKkl19j958R-26" value="&lt;div&gt;&lt;span style=&quot;font-size: 18px&quot;&gt;1. init函数&lt;/span&gt;&lt;/div&gt;&lt;div&gt;&lt;span style=&quot;font-size: 18px&quot;&gt;功能：&lt;/span&gt;&lt;/div&gt;&lt;font style=&quot;font-size: 18px&quot;&gt;负责初始化fpga硬件，包括创建上下文和fpga实例建立绑定关系，以及加载算法二进制文件到fpga芯片内&lt;br&gt;&lt;div&gt;&lt;span&gt;2. encode函数和decode函数调用过程一样，区别只是在参数传递时指定哪些数据块不存在，主要流程包括获取实例上下文，准备参数，调用任务执行接口，等待返回结果，最后释放内存及上下文&lt;/span&gt;&lt;/div&gt;&lt;/font&gt;" style="text;html=1;strokeColor=none;fillColor=none;align=left;verticalAlign=middle;whiteSpace=wrap;rounded=0;" parent="1" vertex="1">
          <mxGeometry x="310" y="130" width="430" height="180" as="geometry" />
        </mxCell>
        <mxCell id="kQczTYPBpwKkl19j958R-27" value="&lt;span style=&quot;font-weight: 700&quot;&gt;&lt;font style=&quot;font-size: 24px&quot;&gt;ErasureCodeFpga实现了ECBackend所需5个最基本的抽象接口&lt;/font&gt;&lt;/span&gt;" style="text;html=1;strokeColor=none;fillColor=none;align=left;verticalAlign=middle;whiteSpace=wrap;rounded=0;" parent="1" vertex="1">
          <mxGeometry x="310" y="70" width="460" height="70" as="geometry" />
        </mxCell>
        <mxCell id="kQczTYPBpwKkl19j958R-39" value="" style="edgeStyle=orthogonalEdgeStyle;rounded=0;orthogonalLoop=1;jettySize=auto;html=1;endArrow=block;endFill=0;" parent="1" source="kQczTYPBpwKkl19j958R-37" target="kQczTYPBpwKkl19j958R-38" edge="1">
          <mxGeometry relative="1" as="geometry" />
        </mxCell>
        <mxCell id="kQczTYPBpwKkl19j958R-37" value="init" style="strokeWidth=2;html=1;shape=mxgraph.flowchart.start_1;whiteSpace=wrap;" parent="1" vertex="1">
          <mxGeometry x="426" y="319" width="100" height="60" as="geometry" />
        </mxCell>
        <mxCell id="kQczTYPBpwKkl19j958R-41" value="" style="edgeStyle=orthogonalEdgeStyle;rounded=0;orthogonalLoop=1;jettySize=auto;html=1;endArrow=block;endFill=0;" parent="1" source="kQczTYPBpwKkl19j958R-38" target="kQczTYPBpwKkl19j958R-40" edge="1">
          <mxGeometry relative="1" as="geometry" />
        </mxCell>
        <mxCell id="kQczTYPBpwKkl19j958R-38" value="&lt;div style=&quot;font-family: &amp;#34;menlo&amp;#34; , &amp;#34;monaco&amp;#34; , &amp;#34;courier new&amp;#34; , monospace ; font-size: 9px ; line-height: 14px&quot;&gt;&lt;span style=&quot;background-color: rgb(255 , 255 , 255)&quot;&gt;clGetPlatformIDs&lt;/span&gt;&lt;/div&gt;" style="whiteSpace=wrap;html=1;strokeWidth=2;" parent="1" vertex="1">
          <mxGeometry x="416" y="412" width="120" height="60" as="geometry" />
        </mxCell>
        <mxCell id="kQczTYPBpwKkl19j958R-43" value="" style="edgeStyle=orthogonalEdgeStyle;rounded=0;orthogonalLoop=1;jettySize=auto;html=1;endArrow=block;endFill=0;fontColor=#000000;" parent="1" source="kQczTYPBpwKkl19j958R-40" target="kQczTYPBpwKkl19j958R-42" edge="1">
          <mxGeometry relative="1" as="geometry" />
        </mxCell>
        <mxCell id="kQczTYPBpwKkl19j958R-40" value="&lt;div style=&quot;font-family: menlo, monaco, &amp;quot;courier new&amp;quot;, monospace; font-size: 9px; line-height: 14px;&quot;&gt;&lt;span style=&quot;&quot;&gt;clGetPlatformInfo&lt;/span&gt;&lt;/div&gt;" style="whiteSpace=wrap;html=1;strokeWidth=2;labelBackgroundColor=#ffffff;" parent="1" vertex="1">
          <mxGeometry x="411" y="509" width="130" height="60" as="geometry" />
        </mxCell>
        <mxCell id="kQczTYPBpwKkl19j958R-45" value="" style="edgeStyle=orthogonalEdgeStyle;rounded=0;orthogonalLoop=1;jettySize=auto;html=1;endArrow=block;endFill=0;fontColor=#000000;" parent="1" source="kQczTYPBpwKkl19j958R-42" target="kQczTYPBpwKkl19j958R-44" edge="1">
          <mxGeometry relative="1" as="geometry" />
        </mxCell>
        <mxCell id="kQczTYPBpwKkl19j958R-42" value="&lt;div style=&quot;font-family: menlo, monaco, &amp;quot;courier new&amp;quot;, monospace; font-size: 9px; line-height: 14px;&quot;&gt;&lt;span style=&quot;&quot;&gt;clGetDeviceIDs&lt;/span&gt;&lt;/div&gt;" style="whiteSpace=wrap;html=1;strokeWidth=2;labelBackgroundColor=#FFFFFF;" parent="1" vertex="1">
          <mxGeometry x="416" y="609" width="120" height="60" as="geometry" />
        </mxCell>
        <mxCell id="kQczTYPBpwKkl19j958R-47" value="" style="edgeStyle=orthogonalEdgeStyle;rounded=0;orthogonalLoop=1;jettySize=auto;html=1;endArrow=block;endFill=0;fontColor=#000000;" parent="1" source="kQczTYPBpwKkl19j958R-44" target="kQczTYPBpwKkl19j958R-46" edge="1">
          <mxGeometry relative="1" as="geometry" />
        </mxCell>
        <mxCell id="kQczTYPBpwKkl19j958R-44" value="&lt;meta charset=&quot;utf-8&quot;&gt;&lt;div style=&quot;font-family: menlo, monaco, &amp;quot;courier new&amp;quot;, monospace; font-weight: normal; font-size: 9px; line-height: 14px;&quot;&gt;&lt;div&gt;&lt;span style=&quot;&quot;&gt;clGetDeviceInfo&lt;/span&gt;&lt;/div&gt;&lt;/div&gt;" style="whiteSpace=wrap;html=1;strokeWidth=2;labelBackgroundColor=#FFFFFF;" parent="1" vertex="1">
          <mxGeometry x="416" y="719" width="120" height="60" as="geometry" />
        </mxCell>
        <mxCell id="kQczTYPBpwKkl19j958R-46" value="&lt;div style=&quot;font-family: menlo, monaco, &amp;quot;courier new&amp;quot;, monospace; font-size: 9px; line-height: 14px;&quot;&gt;&lt;span style=&quot;&quot;&gt;clCreateProgramWithBinary&lt;/span&gt;&lt;/div&gt;" style="whiteSpace=wrap;html=1;strokeWidth=2;labelBackgroundColor=#FFFFFF;" parent="1" vertex="1">
          <mxGeometry x="381" y="829" width="190" height="60" as="geometry" />
        </mxCell>
        <mxCell id="kQczTYPBpwKkl19j958R-59" value="" style="edgeStyle=orthogonalEdgeStyle;rounded=0;orthogonalLoop=1;jettySize=auto;html=1;endArrow=block;endFill=0;fontColor=#000000;" parent="1" source="kQczTYPBpwKkl19j958R-48" target="kQczTYPBpwKkl19j958R-58" edge="1">
          <mxGeometry relative="1" as="geometry" />
        </mxCell>
        <mxCell id="kQczTYPBpwKkl19j958R-48" value="encode/decode" style="strokeWidth=2;html=1;shape=mxgraph.flowchart.start_1;whiteSpace=wrap;labelBackgroundColor=#FFFFFF;fontColor=#000000;" parent="1" vertex="1">
          <mxGeometry x="686" y="319" width="100" height="60" as="geometry" />
        </mxCell>
        <mxCell id="kQczTYPBpwKkl19j958R-6" value="ErasureCodeFpga" style="swimlane;fontStyle=1;align=center;verticalAlign=top;childLayout=stackLayout;horizontal=1;startSize=26;horizontalStack=0;resizeParent=1;resizeParentMax=0;resizeLast=0;collapsible=1;marginBottom=0;" parent="1" vertex="1">
          <mxGeometry x="96" y="570" width="160" height="164" as="geometry" />
        </mxCell>
        <mxCell id="kQczTYPBpwKkl19j958R-8" value="" style="line;strokeWidth=1;fillColor=none;align=left;verticalAlign=middle;spacingTop=-1;spacingLeft=3;spacingRight=3;rotatable=0;labelPosition=right;points=[];portConstraint=eastwest;" parent="kQczTYPBpwKkl19j958R-6" vertex="1">
          <mxGeometry y="26" width="160" height="8" as="geometry" />
        </mxCell>
        <mxCell id="kQczTYPBpwKkl19j958R-9" value="+ init: int" style="text;strokeColor=none;fillColor=none;align=left;verticalAlign=top;spacingLeft=4;spacingRight=4;overflow=hidden;rotatable=0;points=[[0,0.5],[1,0.5]];portConstraint=eastwest;" parent="kQczTYPBpwKkl19j958R-6" vertex="1">
          <mxGeometry y="34" width="160" height="26" as="geometry" />
        </mxCell>
        <mxCell id="kQczTYPBpwKkl19j958R-21" value="+ encode: int" style="text;strokeColor=none;fillColor=none;align=left;verticalAlign=top;spacingLeft=4;spacingRight=4;overflow=hidden;rotatable=0;points=[[0,0.5],[1,0.5]];portConstraint=eastwest;" parent="kQczTYPBpwKkl19j958R-6" vertex="1">
          <mxGeometry y="60" width="160" height="26" as="geometry" />
        </mxCell>
        <mxCell id="kQczTYPBpwKkl19j958R-22" value="+ decode: int" style="text;strokeColor=none;fillColor=none;align=left;verticalAlign=top;spacingLeft=4;spacingRight=4;overflow=hidden;rotatable=0;points=[[0,0.5],[1,0.5]];portConstraint=eastwest;" parent="kQczTYPBpwKkl19j958R-6" vertex="1">
          <mxGeometry y="86" width="160" height="26" as="geometry" />
        </mxCell>
        <mxCell id="kQczTYPBpwKkl19j958R-23" value="+ encode_chunks: int" style="text;strokeColor=none;fillColor=none;align=left;verticalAlign=top;spacingLeft=4;spacingRight=4;overflow=hidden;rotatable=0;points=[[0,0.5],[1,0.5]];portConstraint=eastwest;" parent="kQczTYPBpwKkl19j958R-6" vertex="1">
          <mxGeometry y="112" width="160" height="26" as="geometry" />
        </mxCell>
        <mxCell id="kQczTYPBpwKkl19j958R-24" value="+ decode_chunks: int" style="text;strokeColor=none;fillColor=none;align=left;verticalAlign=top;spacingLeft=4;spacingRight=4;overflow=hidden;rotatable=0;points=[[0,0.5],[1,0.5]];portConstraint=eastwest;" parent="kQczTYPBpwKkl19j958R-6" vertex="1">
          <mxGeometry y="138" width="160" height="26" as="geometry" />
        </mxCell>
        <mxCell id="kQczTYPBpwKkl19j958R-57" style="edgeStyle=orthogonalEdgeStyle;rounded=0;orthogonalLoop=1;jettySize=auto;html=1;exitX=0.5;exitY=0;exitDx=0;exitDy=0;entryX=0.425;entryY=1.038;entryDx=0;entryDy=0;entryPerimeter=0;endArrow=block;endFill=0;fontColor=#000000;" parent="1" source="kQczTYPBpwKkl19j958R-2" target="kQczTYPBpwKkl19j958R-56" edge="1">
          <mxGeometry relative="1" as="geometry" />
        </mxCell>
        <mxCell id="kQczTYPBpwKkl19j958R-2" value="ErasureCodeJerasure" style="swimlane;fontStyle=1;align=center;verticalAlign=top;childLayout=stackLayout;horizontal=1;startSize=26;horizontalStack=0;resizeParent=1;resizeParentMax=0;resizeLast=0;collapsible=1;marginBottom=0;" parent="1" vertex="1">
          <mxGeometry x="99" y="330" width="160" height="164" as="geometry" />
        </mxCell>
        <mxCell id="kQczTYPBpwKkl19j958R-4" value="" style="line;strokeWidth=1;fillColor=none;align=left;verticalAlign=middle;spacingTop=-1;spacingLeft=3;spacingRight=3;rotatable=0;labelPosition=right;points=[];portConstraint=eastwest;" parent="kQczTYPBpwKkl19j958R-2" vertex="1">
          <mxGeometry y="26" width="160" height="8" as="geometry" />
        </mxCell>
        <mxCell id="kQczTYPBpwKkl19j958R-5" value="+ init: int" style="text;strokeColor=none;fillColor=none;align=left;verticalAlign=top;spacingLeft=4;spacingRight=4;overflow=hidden;rotatable=0;points=[[0,0.5],[1,0.5]];portConstraint=eastwest;" parent="kQczTYPBpwKkl19j958R-2" vertex="1">
          <mxGeometry y="34" width="160" height="26" as="geometry" />
        </mxCell>
        <mxCell id="kQczTYPBpwKkl19j958R-15" value="+ encode: int" style="text;strokeColor=none;fillColor=none;align=left;verticalAlign=top;spacingLeft=4;spacingRight=4;overflow=hidden;rotatable=0;points=[[0,0.5],[1,0.5]];portConstraint=eastwest;" parent="kQczTYPBpwKkl19j958R-2" vertex="1">
          <mxGeometry y="60" width="160" height="26" as="geometry" />
        </mxCell>
        <mxCell id="kQczTYPBpwKkl19j958R-12" value="+ decode: int" style="text;strokeColor=none;fillColor=none;align=left;verticalAlign=top;spacingLeft=4;spacingRight=4;overflow=hidden;rotatable=0;points=[[0,0.5],[1,0.5]];portConstraint=eastwest;" parent="kQczTYPBpwKkl19j958R-2" vertex="1">
          <mxGeometry y="86" width="160" height="26" as="geometry" />
        </mxCell>
        <mxCell id="kQczTYPBpwKkl19j958R-13" value="+ encode_chunks: int" style="text;strokeColor=none;fillColor=none;align=left;verticalAlign=top;spacingLeft=4;spacingRight=4;overflow=hidden;rotatable=0;points=[[0,0.5],[1,0.5]];portConstraint=eastwest;" parent="kQczTYPBpwKkl19j958R-2" vertex="1">
          <mxGeometry y="112" width="160" height="26" as="geometry" />
        </mxCell>
        <mxCell id="kQczTYPBpwKkl19j958R-14" value="+ decode_chunks: int" style="text;strokeColor=none;fillColor=none;align=left;verticalAlign=top;spacingLeft=4;spacingRight=4;overflow=hidden;rotatable=0;points=[[0,0.5],[1,0.5]];portConstraint=eastwest;" parent="kQczTYPBpwKkl19j958R-2" vertex="1">
          <mxGeometry y="138" width="160" height="26" as="geometry" />
        </mxCell>
        <mxCell id="kQczTYPBpwKkl19j958R-50" value="ErasureCodeInterface" style="swimlane;fontStyle=1;align=center;verticalAlign=top;childLayout=stackLayout;horizontal=1;startSize=26;horizontalStack=0;resizeParent=1;resizeParentMax=0;resizeLast=0;collapsible=1;marginBottom=0;" parent="1" vertex="1">
          <mxGeometry x="111" y="80" width="160" height="164" as="geometry" />
        </mxCell>
        <mxCell id="kQczTYPBpwKkl19j958R-51" value="" style="line;strokeWidth=1;fillColor=none;align=left;verticalAlign=middle;spacingTop=-1;spacingLeft=3;spacingRight=3;rotatable=0;labelPosition=right;points=[];portConstraint=eastwest;" parent="kQczTYPBpwKkl19j958R-50" vertex="1">
          <mxGeometry y="26" width="160" height="8" as="geometry" />
        </mxCell>
        <mxCell id="kQczTYPBpwKkl19j958R-52" value="+ init: int" style="text;strokeColor=none;fillColor=none;align=left;verticalAlign=top;spacingLeft=4;spacingRight=4;overflow=hidden;rotatable=0;points=[[0,0.5],[1,0.5]];portConstraint=eastwest;" parent="kQczTYPBpwKkl19j958R-50" vertex="1">
          <mxGeometry y="34" width="160" height="26" as="geometry" />
        </mxCell>
        <mxCell id="kQczTYPBpwKkl19j958R-53" value="+ encode: int" style="text;strokeColor=none;fillColor=none;align=left;verticalAlign=top;spacingLeft=4;spacingRight=4;overflow=hidden;rotatable=0;points=[[0,0.5],[1,0.5]];portConstraint=eastwest;" parent="kQczTYPBpwKkl19j958R-50" vertex="1">
          <mxGeometry y="60" width="160" height="26" as="geometry" />
        </mxCell>
        <mxCell id="kQczTYPBpwKkl19j958R-54" value="+ decode: int" style="text;strokeColor=none;fillColor=none;align=left;verticalAlign=top;spacingLeft=4;spacingRight=4;overflow=hidden;rotatable=0;points=[[0,0.5],[1,0.5]];portConstraint=eastwest;" parent="kQczTYPBpwKkl19j958R-50" vertex="1">
          <mxGeometry y="86" width="160" height="26" as="geometry" />
        </mxCell>
        <mxCell id="kQczTYPBpwKkl19j958R-55" value="+ encode_chunks: int" style="text;strokeColor=none;fillColor=none;align=left;verticalAlign=top;spacingLeft=4;spacingRight=4;overflow=hidden;rotatable=0;points=[[0,0.5],[1,0.5]];portConstraint=eastwest;" parent="kQczTYPBpwKkl19j958R-50" vertex="1">
          <mxGeometry y="112" width="160" height="26" as="geometry" />
        </mxCell>
        <mxCell id="kQczTYPBpwKkl19j958R-56" value="+ decode_chunks: int" style="text;strokeColor=none;fillColor=none;align=left;verticalAlign=top;spacingLeft=4;spacingRight=4;overflow=hidden;rotatable=0;points=[[0,0.5],[1,0.5]];portConstraint=eastwest;" parent="kQczTYPBpwKkl19j958R-50" vertex="1">
          <mxGeometry y="138" width="160" height="26" as="geometry" />
        </mxCell>
        <mxCell id="kQczTYPBpwKkl19j958R-61" value="" style="edgeStyle=orthogonalEdgeStyle;rounded=0;orthogonalLoop=1;jettySize=auto;html=1;endArrow=block;endFill=0;fontColor=#000000;" parent="1" source="kQczTYPBpwKkl19j958R-58" target="kQczTYPBpwKkl19j958R-60" edge="1">
          <mxGeometry relative="1" as="geometry" />
        </mxCell>
        <mxCell id="kQczTYPBpwKkl19j958R-58" value="&lt;meta charset=&quot;utf-8&quot;&gt;&lt;div style=&quot;font-family: menlo, monaco, &amp;quot;courier new&amp;quot;, monospace; font-weight: normal; font-size: 9px; line-height: 14px;&quot;&gt;&lt;div&gt;&lt;span style=&quot;&quot;&gt;fpga_erasure&lt;/span&gt;&lt;/div&gt;&lt;/div&gt;" style="whiteSpace=wrap;html=1;strokeWidth=2;labelBackgroundColor=#FFFFFF;" parent="1" vertex="1">
          <mxGeometry x="676" y="412" width="120" height="60" as="geometry" />
        </mxCell>
        <mxCell id="kQczTYPBpwKkl19j958R-63" value="" style="edgeStyle=orthogonalEdgeStyle;rounded=0;orthogonalLoop=1;jettySize=auto;html=1;endArrow=block;endFill=0;fontColor=#000000;" parent="1" source="kQczTYPBpwKkl19j958R-60" target="kQczTYPBpwKkl19j958R-62" edge="1">
          <mxGeometry relative="1" as="geometry" />
        </mxCell>
        <mxCell id="kQczTYPBpwKkl19j958R-60" value="&lt;meta charset=&quot;utf-8&quot;&gt;&lt;div style=&quot;font-family: menlo, monaco, &amp;quot;courier new&amp;quot;, monospace; font-weight: normal; font-size: 9px; line-height: 14px;&quot;&gt;&lt;div&gt;&lt;span style=&quot;&quot;&gt;clCreateCommandQueue&lt;/span&gt;&lt;/div&gt;&lt;/div&gt;" style="whiteSpace=wrap;html=1;strokeWidth=2;labelBackgroundColor=#FFFFFF;" parent="1" vertex="1">
          <mxGeometry x="661" y="509" width="150" height="60" as="geometry" />
        </mxCell>
        <mxCell id="kQczTYPBpwKkl19j958R-68" value="" style="edgeStyle=orthogonalEdgeStyle;rounded=0;orthogonalLoop=1;jettySize=auto;html=1;endArrow=block;endFill=0;fontColor=#000000;" parent="1" source="kQczTYPBpwKkl19j958R-62" target="kQczTYPBpwKkl19j958R-67" edge="1">
          <mxGeometry relative="1" as="geometry" />
        </mxCell>
        <mxCell id="kQczTYPBpwKkl19j958R-62" value="&lt;div style=&quot;font-family: menlo, monaco, &amp;quot;courier new&amp;quot;, monospace; font-size: 9px; line-height: 14px;&quot;&gt;&lt;span style=&quot;&quot;&gt;获取实例&lt;/span&gt;&lt;/div&gt;&lt;div style=&quot;font-family: menlo, monaco, &amp;quot;courier new&amp;quot;, monospace; font-size: 9px; line-height: 14px;&quot;&gt;&lt;span style=&quot;&quot;&gt;clCreateKernel&lt;/span&gt;&lt;/div&gt;" style="whiteSpace=wrap;html=1;strokeWidth=2;labelBackgroundColor=#FFFFFF;" parent="1" vertex="1">
          <mxGeometry x="676" y="604" width="120" height="60" as="geometry" />
        </mxCell>
        <mxCell id="kQczTYPBpwKkl19j958R-70" value="" style="edgeStyle=orthogonalEdgeStyle;rounded=0;orthogonalLoop=1;jettySize=auto;html=1;endArrow=block;endFill=0;fontColor=#000000;" parent="1" source="kQczTYPBpwKkl19j958R-67" target="kQczTYPBpwKkl19j958R-69" edge="1">
          <mxGeometry relative="1" as="geometry" />
        </mxCell>
        <mxCell id="kQczTYPBpwKkl19j958R-67" value="&lt;div style=&quot;font-family: menlo, monaco, &amp;quot;courier new&amp;quot;, monospace; font-size: 9px; line-height: 14px;&quot;&gt;&lt;span style=&quot;&quot;&gt;准备参数&lt;/span&gt;&lt;/div&gt;&lt;div style=&quot;font-family: menlo, monaco, &amp;quot;courier new&amp;quot;, monospace; font-size: 9px; line-height: 14px;&quot;&gt;&lt;span style=&quot;&quot;&gt;clCreateBuffer&lt;/span&gt;&lt;/div&gt;&lt;div style=&quot;font-family: menlo, monaco, &amp;quot;courier new&amp;quot;, monospace; font-size: 9px; line-height: 14px;&quot;&gt;&lt;div style=&quot;font-family: &amp;quot;menlo&amp;quot; , &amp;quot;monaco&amp;quot; , &amp;quot;courier new&amp;quot; , monospace ; line-height: 14px&quot;&gt;&lt;span style=&quot;&quot;&gt;clSetKernelArg&lt;/span&gt;&lt;/div&gt;&lt;div style=&quot;font-family: &amp;quot;menlo&amp;quot; , &amp;quot;monaco&amp;quot; , &amp;quot;courier new&amp;quot; , monospace ; line-height: 14px&quot;&gt;&lt;div style=&quot;line-height: 14px&quot;&gt;&lt;span style=&quot;&quot;&gt;clEnqueueMigrateMemObjects&lt;/span&gt;&lt;/div&gt;&lt;/div&gt;&lt;/div&gt;" style="whiteSpace=wrap;html=1;strokeWidth=2;labelBackgroundColor=#FFFFFF;" parent="1" vertex="1">
          <mxGeometry x="641" y="699" width="190" height="60" as="geometry" />
        </mxCell>
        <mxCell id="kQczTYPBpwKkl19j958R-77" value="" style="edgeStyle=orthogonalEdgeStyle;rounded=0;orthogonalLoop=1;jettySize=auto;html=1;endArrow=block;endFill=0;fontColor=#000000;" parent="1" source="kQczTYPBpwKkl19j958R-69" target="kQczTYPBpwKkl19j958R-76" edge="1">
          <mxGeometry relative="1" as="geometry" />
        </mxCell>
        <mxCell id="kQczTYPBpwKkl19j958R-69" value="&lt;div style=&quot;font-family: menlo, monaco, &amp;quot;courier new&amp;quot;, monospace; font-weight: normal; font-size: 9px; line-height: 14px;&quot;&gt;&lt;div&gt;&lt;span style=&quot;&quot;&gt;执行纠删码任务&lt;/span&gt;&lt;/div&gt;&lt;div&gt;&lt;span style=&quot;&quot;&gt;clEnqueueTask&lt;/span&gt;&lt;/div&gt;&lt;/div&gt;" style="whiteSpace=wrap;html=1;strokeWidth=2;labelBackgroundColor=#FFFFFF;" parent="1" vertex="1">
          <mxGeometry x="676" y="789" width="120" height="60" as="geometry" />
        </mxCell>
        <mxCell id="kQczTYPBpwKkl19j958R-81" value="" style="edgeStyle=orthogonalEdgeStyle;rounded=0;orthogonalLoop=1;jettySize=auto;html=1;endArrow=block;endFill=0;fontColor=#000000;" parent="1" source="kQczTYPBpwKkl19j958R-76" target="kQczTYPBpwKkl19j958R-80" edge="1">
          <mxGeometry relative="1" as="geometry" />
        </mxCell>
        <mxCell id="kQczTYPBpwKkl19j958R-76" value="&lt;div style=&quot;font-family: menlo, monaco, &amp;quot;courier new&amp;quot;, monospace; font-weight: normal; font-size: 9px; line-height: 14px;&quot;&gt;&lt;div&gt;&lt;span style=&quot;font-family: helvetica; font-size: 12px;&quot;&gt;获取编解码结果&lt;/span&gt;&lt;span style=&quot;&quot;&gt;&lt;br&gt;&lt;/span&gt;&lt;/div&gt;&lt;div&gt;&lt;span style=&quot;&quot;&gt;clEnqueueMigrateMemObjects&lt;/span&gt;&lt;/div&gt;&lt;/div&gt;" style="whiteSpace=wrap;html=1;strokeWidth=2;labelBackgroundColor=#FFFFFF;" parent="1" vertex="1">
          <mxGeometry x="641" y="889" width="190" height="60" as="geometry" />
        </mxCell>
        <mxCell id="kQczTYPBpwKkl19j958R-80" value="&lt;div style=&quot;font-family: menlo, monaco, &amp;quot;courier new&amp;quot;, monospace; font-size: 9px; line-height: 14px;&quot;&gt;&lt;span style=&quot;&quot;&gt;释放实例清理内存&lt;/span&gt;&lt;/div&gt;&lt;div style=&quot;font-family: menlo, monaco, &amp;quot;courier new&amp;quot;, monospace; font-size: 9px; line-height: 14px;&quot;&gt;&lt;span style=&quot;&quot;&gt;clFinish&lt;/span&gt;&lt;/div&gt;&lt;div style=&quot;font-family: menlo, monaco, &amp;quot;courier new&amp;quot;, monospace; font-size: 9px; line-height: 14px;&quot;&gt;&lt;div style=&quot;line-height: 14px&quot;&gt;&lt;span style=&quot;&quot;&gt;clReleaseKernel&lt;/span&gt;&lt;/div&gt;&lt;/div&gt;" style="whiteSpace=wrap;html=1;strokeWidth=2;labelBackgroundColor=#FFFFFF;" parent="1" vertex="1">
          <mxGeometry x="676" y="989" width="120" height="60" as="geometry" />
        </mxCell>
        <mxCell id="kQczTYPBpwKkl19j958R-85" style="edgeStyle=orthogonalEdgeStyle;rounded=0;orthogonalLoop=1;jettySize=auto;html=1;entryX=1;entryY=0.5;entryDx=0;entryDy=0;endArrow=block;endFill=0;fontColor=#000000;" parent="1" source="kQczTYPBpwKkl19j958R-84" target="kQczTYPBpwKkl19j958R-76" edge="1">
          <mxGeometry relative="1" as="geometry" />
        </mxCell>
        <mxCell id="kQczTYPBpwKkl19j958R-84" value="单字节的纠删码算法还需要做一些数据的拼装和填充等操作" style="whiteSpace=wrap;html=1;shape=mxgraph.basic.rectCallout;dx=30;dy=15;boundedLbl=1;labelBackgroundColor=#FFFFFF;fontColor=#000000;" parent="1" vertex="1">
          <mxGeometry x="886" y="789" width="100" height="80" as="geometry" />
        </mxCell>
      </root>
    </mxGraphModel>
  </diagram>
</mxfile>
